<svg width="101.0" height="120.0" preserveAspectRatio="xMinYMin meet" viewBox="0 0 101 120" xmlns="http://www.w3.org/2000/svg" version="1.0" fill-rule="evenodd" xmlns:xlink="http://www.w3.org/1999/xlink"><title>...</title><desc>...</desc><g id="group" transform="scale(1,-1) translate(0,-120)" clip="0 0 101 120"><g transform=""><g transform=" matrix(1,0,0,-1,0,120)"><g transform=" matrix(1,0,0,1,1,1)"><g transform=""><path d="M 92.444 52.814 C 94.23 50.614 94.875 49.591 94.875 49.001 C 94.875 48.41 94.23 47.387 92.444 45.187 L 92.219 44.91 C 90.088 42.278 89.097 40.736 88.532 38.643 C 88.108 37.071 88.046 35.441 88.242 33.487 C 88.315 32.753 88.4 32.137 88.585 30.934 C 89.01 28.156 89.055 26.969 88.805 26.54 C 88.549 26.103 87.488 25.531 85.159 24.632 L 84.862 24.517 C 81.278 23.137 79.704 22.344 78.067 20.723 C 76.429 19.102 75.629 17.544 74.234 13.996 L 74.118 13.701 C 73.21 11.396 72.632 10.346 72.19 10.093 C 71.792 9.865 70.608 9.887 68.286 10.231 L 67.91 10.287 C 66.541 10.492 65.922 10.577 65.183 10.649 C 63.204 10.843 61.555 10.783 59.965 10.362 C 57.768 9.782 56.311 8.842 53.353 6.49 C 51.13 4.722 50.097 4.083 49.5 4.083 C 49.022 4.083 48.076 4.599 46.582 5.753 C 46.362 5.923 46.142 6.096 45.817 6.355 C 42.69 8.842 41.233 9.781 39.037 10.362 C 36.773 10.96 34.99 10.872 31.163 10.297 C 28.443 9.888 27.244 9.844 26.811 10.092 C 26.345 10.359 25.78 11.417 24.767 13.995 C 23.374 17.542 22.572 19.1 20.935 20.721 C 19.428 22.213 17.74 23.113 14.853 24.239 C 14.653 24.317 14.495 24.379 14.139 24.515 L 13.841 24.63 C 11.512 25.53 10.452 26.102 10.197 26.538 C 9.967 26.933 9.988 28.106 10.336 30.406 L 10.392 30.778 C 10.599 32.131 10.685 32.744 10.758 33.475 C 10.954 35.435 10.893 37.067 10.468 38.641 C 9.881 40.816 8.932 42.258 6.556 45.185 C 6.16 45.675 5.986 45.891 5.816 46.107 C 4.646 47.588 4.124 48.526 4.124 49 C 4.124 49.473 4.644 50.41 5.808 51.885 C 5.981 52.103 6.156 52.322 6.419 52.646 C 8.931 55.74 9.879 57.183 10.467 59.358 C 10.892 60.93 10.953 62.561 10.757 64.517 C 10.684 65.25 10.598 65.865 10.414 67.067 C 9.989 69.844 9.944 71.031 10.194 71.46 C 10.45 71.897 11.511 72.47 13.84 73.369 L 14.137 73.483 C 17.721 74.863 19.295 75.656 20.933 77.277 C 22.57 78.898 23.371 80.456 24.765 84.004 L 24.881 84.299 C 25.789 86.605 26.367 87.654 26.809 87.907 C 27.207 88.135 28.392 88.113 30.715 87.769 L 31.091 87.713 C 32.463 87.507 33.084 87.423 33.825 87.35 C 34.524 87.282 35.171 87.246 35.798 87.246 C 36.948 87.246 38.013 87.367 39.035 87.638 C 41.232 88.218 42.688 89.158 45.646 91.51 C 47.869 93.278 48.902 93.917 49.499 93.917 C 50.096 93.917 51.129 93.278 53.352 91.51 L 53.632 91.288 C 56.29 89.178 57.847 88.198 59.962 87.638 C 62.226 87.039 64.007 87.128 67.836 87.703 C 70.556 88.111 71.756 88.155 72.188 87.907 C 72.654 87.64 73.219 86.582 74.232 84.005 C 75.625 80.458 76.427 78.899 78.065 77.278 C 79.702 75.658 81.275 74.864 84.86 73.484 L 85.158 73.369 C 87.488 72.47 88.548 71.898 88.802 71.461 C 89.033 71.067 89.012 69.894 88.664 67.594 L 88.607 67.222 C 88.017 63.362 87.926 61.599 88.531 59.358 C 89.118 57.184 90.067 55.742 92.443 52.814 Z M 92.517 60.413 C 92.11 61.92 92.181 63.311 92.676 66.541 C 92.716 66.799 92.716 66.799 92.744 66.991 C 93.251 70.344 93.281 71.954 92.374 73.506 C 91.437 75.109 90.01 75.879 86.659 77.174 L 86.356 77.29 C 83.311 78.462 82.072 79.087 80.982 80.166 C 79.892 81.245 79.262 82.472 78.077 85.486 C 76.634 89.16 75.927 90.484 74.255 91.442 C 72.613 92.382 71.131 92.327 67.219 91.74 C 63.956 91.25 62.551 91.18 61.029 91.583 C 59.642 91.95 58.439 92.708 56.213 94.473 L 55.936 94.693 C 52.803 97.186 51.486 98 49.5 98 C 47.515 98 46.197 97.185 43.064 94.693 C 40.56 92.702 39.416 91.965 37.97 91.583 C 37.32 91.41 36.608 91.329 35.799 91.329 C 35.318 91.329 34.804 91.358 34.232 91.414 C 33.584 91.477 33.013 91.555 31.869 91.727 L 31.326 91.807 C 27.938 92.309 26.312 92.339 24.744 91.441 C 23.124 90.514 22.347 89.101 21.039 85.784 L 20.921 85.484 C 19.737 82.47 19.107 81.244 18.017 80.164 C 16.927 79.086 15.687 78.461 12.642 77.289 L 12.342 77.173 C 8.99 75.878 7.562 75.108 6.625 73.505 C 5.675 71.88 5.731 70.413 6.324 66.54 C 6.511 65.321 6.589 64.756 6.654 64.115 C 6.804 62.607 6.76 61.44 6.483 60.412 C 6.097 58.982 5.352 57.849 3.34 55.371 C 2.93 54.865 2.744 54.634 2.558 54.397 C 0.827 52.202 0 50.717 0 49 C 0 47.282 0.828 45.796 2.564 43.595 C 2.748 43.361 2.932 43.132 3.203 42.798 C 5.353 40.15 6.097 39.018 6.483 37.587 C 6.761 36.558 6.804 35.389 6.653 33.878 C 6.589 33.238 6.511 32.675 6.338 31.544 L 6.256 31.009 C 5.749 27.655 5.719 26.046 6.626 24.493 C 7.563 22.891 8.99 22.12 12.342 20.826 L 12.644 20.71 L 13.34 20.44 C 15.733 19.507 17.023 18.82 18.018 17.834 C 19.108 16.754 19.738 15.528 20.923 12.514 C 22.367 8.84 23.073 7.515 24.746 6.558 C 26.387 5.618 27.87 5.672 31.781 6.26 C 35.042 6.749 36.449 6.82 37.971 6.417 C 39.417 6.034 40.561 5.297 43.064 3.306 C 43.574 2.901 43.806 2.718 44.044 2.535 C 46.264 0.819 47.765 0 49.5 0 C 51.486 0 52.804 0.815 55.937 3.307 C 58.441 5.298 59.584 6.035 61.03 6.417 C 62.069 6.692 63.25 6.735 64.776 6.585 C 65.422 6.522 65.992 6.445 67.134 6.273 L 67.676 6.193 C 71.063 5.691 72.688 5.661 74.256 6.559 C 75.876 7.487 76.654 8.899 77.961 12.217 L 78.079 12.516 C 79.263 15.53 79.894 16.756 80.984 17.836 C 82.074 18.915 83.313 19.539 86.358 20.712 L 86.658 20.828 C 90.01 22.122 91.438 22.892 92.375 24.496 C 93.325 26.12 93.269 27.587 92.676 31.461 C 92.489 32.681 92.411 33.247 92.346 33.889 C 92.196 35.395 92.24 36.562 92.517 37.589 C 92.887 38.961 93.653 40.153 95.437 42.356 L 95.659 42.629 C 98.176 45.73 99 47.035 99 49 C 99 50.965 98.177 52.271 95.66 55.372 C 93.648 57.85 92.904 58.982 92.517 60.413 Z " style="stroke: rgb(26%,29%,32%); stroke-linecap: butt; stroke-width: 1; fill: rgb(26%,29%,32%); fill-rule: evenodd;"/></g><ellipse cx="50.5" cy="50.0" rx="31.5" ry="31.0" style="stroke: none; stroke-linecap: butt; stroke-width: 1; fill: rgb(94%,33%,38%); fill-rule: evenodd;"/><g transform=""><path d="M 66.049 32.12 C 66.9429 30.905361 68.64808 30.636849 69.872 31.518 C 70.458487 31.938043 70.852494 32.575315 70.966152 33.287695 C 71.07981 34.000074 70.903665 34.728313 70.477 35.31 L 46.62 67.88 C 46.178531 68.479868 45.512698 68.875096 44.774671 68.975359 C 44.036644 69.075623 43.289503 68.872351 42.704 68.412 L 30.036 58.44 C 29.468319 57.995393 29.102065 57.342188 29.01885 56.62594 C 28.935636 55.909691 29.142375 55.189915 29.593 54.627 C 30.537684 53.45172 32.25223 53.255517 33.438 54.187 L 43.87 62.4 L 66.049 32.12 Z " style="stroke: none; stroke-linecap: butt; stroke-width: 1; fill: rgb(100%,100%,100%); fill-rule: evenodd;"/></g><g transform=""><path d="M 50.5 17 C 51.642 17 52.568 17.912 52.568 19.037 C 52.568 20.162 51.642 21.074 50.5 21.074 C 34.283 21.074 21.136 34.024 21.136 50 C 21.136 65.975 34.283 78.926 50.5 78.926 C 66.717 78.926 79.864 65.976 79.864 50 C 79.864 48.875 80.79 47.963 81.932 47.963 C 83.074 47.963 84 48.875 84 50 C 84 68.225 69.002 83 50.5 83 C 31.998 83 17 68.225 17 50 C 17 31.775 31.998 17 50.5 17 Z " style="stroke: none; stroke-linecap: butt; stroke-width: 1; fill: rgb(26%,29%,32%); fill-rule: evenodd;"/></g><g transform=""><path d="M 74.46 96.206 C 74.46 94.988 75.476 94 76.73 94 C 77.984 94 79 94.988 79 96.206 L 79 116.793 C 79 118.213 77.64 119.263 76.216 118.942 L 50.699 113.175 L 24.777 118.943 C 23.355 119.26 22 118.21 22 116.793 L 22 103.068 C 22 101.85 23.016 100.862 24.27 100.862 C 25.524 100.862 26.54 101.85 26.54 103.068 L 26.54 114.025 L 50.196 108.761 C 50.53231 108.686307 50.880985 108.68699 51.217 108.763 L 74.46 114.016 L 74.46 96.206 Z M 24.5 94 C 23.843 94 23.198 94.267 22.733 94.733 C 22.265182 95.203498 22.001794 95.83951 22 96.503 C 22 97.157 22.267 97.803 22.733 98.27 C 23.198 98.735 23.843 99 24.5 99 C 25.157 99 25.802 98.735 26.267 98.27 C 26.733 97.802 27 97.16 27 96.503 C 26.998206 95.83951 26.734818 95.203498 26.267 94.733 C 25.797302 94.265819 25.162471 94.002474 24.5 94 Z " style="stroke: none; stroke-linecap: butt; stroke-width: 1; fill: rgb(33%,77%,85%); fill-rule: evenodd;"/></g><g transform=""><path d="M 58.5 17 C 57.843 17 57.197 17.267 56.733 17.733 C 56.265182 18.203498 56.001794 18.83951 56 19.503 C 56 20.157 56.267 20.803 56.733 21.27 C 57.198 21.735 57.843 22 58.5 22 C 59.157 22 59.803 21.735 60.267 21.27 C 60.732 20.802 61 20.16 61 19.503 C 60.998206 18.83951 60.734818 18.203498 60.267 17.733 C 59.797302 17.265819 59.162471 17.002474 58.5 17 Z " style="stroke: none; stroke-linecap: butt; stroke-width: 1; fill: rgb(26%,29%,32%); fill-rule: evenodd;"/></g></g></g></g></g></svg>