<svg width="158.0" height="106.0" preserveAspectRatio="xMinYMin meet" viewBox="0 0 158 106" xmlns="http://www.w3.org/2000/svg" version="1.0" fill-rule="evenodd" xmlns:xlink="http://www.w3.org/1999/xlink"><title>...</title><desc>...</desc><g id="group" transform="scale(1,-1) translate(0,-106)" clip="0 0 158 106"><g transform=""><g transform=" matrix(1,0,0,-1,0,106)"><g transform=""><g transform=""><path d="M 86.751 13 L 134.485 27.917 L 134.485 51.277 L 118.692 56.418 L 118.692 34.216 L 69 18.375 Z " style="stroke: none; stroke-linecap: butt; stroke-width: 1; fill: rgb(94%,33%,38%); fill-rule: evenodd;"/></g><g transform=""><path d="M 89.024 12.944 L 137.066 28.294 C 138.101449 28.624893 138.804408 29.586965 138.805 30.674 L 138.805 50.945 C 138.805215 52.005162 138.13673 52.950178 137.137 53.303 L 132.442 54.961 C 131.139989 55.420777 129.711777 54.738011 129.252 53.436 C 128.792223 52.133989 129.474989 50.705777 130.777 50.246 L 133.805 49.176 L 133.805 32.502 L 80.305 15.408 C 78.012 14.675 77.978 11.441 80.257 10.661 L 97.857 4.636 C 98.362164 4.462659 98.909563 4.45565 99.419 4.616 L 155.419 22.287 C 156.459767 22.615266 157.167341 23.580691 157.167 24.672 L 157.167 85.636 C 157.166744 86.72603 156.460272 87.690247 155.421 88.019 L 99.421 105.734 C 98.927228 105.890147 98.39715 105.889099 97.904 105.731 L 42.603 88.016 C 41.567596 87.684641 40.865018 86.722134 40.865 85.635 L 40.865 77.383 C 40.865 76.002288 41.984288 74.883 43.365 74.883 C 44.745712 74.883 45.865 76.002288 45.865 77.383 L 45.865 83.81 L 98.672 100.726 L 152.167 83.804 L 152.167 26.504 L 98.699 9.631 L 89.024 12.943 Z " style="stroke: none; stroke-linecap: butt; stroke-width: 1; fill: rgb(26%,29%,32%); fill-rule: evenodd;"/></g><g transform=""><path d="M 153.913 22.616 C 155.229647 22.199577 156.634577 22.929353 157.051 24.246 C 157.467423 25.562647 156.737647 26.967577 155.421 27.384 L 99.421 45.098 C 98.929081 45.254063 98.400919 45.254063 97.909 45.098 L 55.173 31.505 C 53.878344 31.070726 53.17168 29.677953 53.585765 28.376699 C 53.99985 27.075446 55.381463 26.347205 56.689 26.741 L 98.669 40.091 L 153.913 22.615 Z " style="stroke: none; stroke-linecap: butt; stroke-width: 1; fill: rgb(26%,29%,32%); fill-rule: evenodd;"/></g><g transform=""><path d="M 123.62 52.464 C 124.927978 52.04151 126.331697 52.754187 126.762481 54.059457 C 127.193264 55.364727 126.48951 56.772941 125.187 57.212 L 119.022 59.248 C 118.260069 59.499635 117.423659 59.370251 116.773373 58.900159 C 116.123086 58.430068 115.737964 57.676408 115.738 56.874 L 115.738 38.429 L 62.24 21.335 C 59.934 20.599 59.917 17.342 62.215 16.581 L 83.216 9.627 C 84.067493 9.332516 85.011575 9.518983 85.687166 10.115085 C 86.362757 10.711187 86.665337 11.624701 86.479178 12.506237 C 86.29302 13.387773 85.646924 14.100949 84.788 14.373 L 71.08 18.912 L 119 34.222 C 120.036547 34.552765 120.740139 35.515958 120.74 36.604 L 120.74 53.416 L 123.62 52.464 Z " style="stroke: none; stroke-linecap: butt; stroke-width: 1; fill: rgb(26%,29%,32%); fill-rule: evenodd;"/></g><g transform=""><path d="M 45.851 26.94 L 45.851 38.987 C 45.851 40.367712 44.731712 41.487 43.351 41.487 C 41.970288 41.487 40.851 40.367712 40.851 38.987 L 40.851 25.105 C 40.851071 24.012879 41.560046 23.047199 42.602 22.72 L 62.465 16.483 C 63.320403 16.203869 64.259819 16.405952 64.924776 17.012137 C 65.589734 17.618322 65.877639 18.535083 65.67863 19.412593 C 65.479621 20.290103 64.824403 20.992975 63.963 21.253 L 45.851 26.94 Z " style="stroke: none; stroke-linecap: butt; stroke-width: 1; fill: rgb(26%,29%,32%); fill-rule: evenodd;"/></g><g transform=""><path d="M 66.965 44.5 C 68.345712 44.5 69.465 45.619288 69.465 47 C 69.465 48.380712 68.345712 49.5 66.965 49.5 L 22 49.5 C 20.619288 49.5 19.5 48.380712 19.5 47 C 19.5 45.619288 20.619288 44.5 22 44.5 L 66.965 44.5 Z M 41.965 55.5 C 43.345712 55.5 44.465 56.619288 44.465 58 C 44.465 59.380712 43.345712 60.5 41.965 60.5 L 3 60.5 C 1.619288 60.5 0.5 59.380712 0.5 58 C 0.5 56.619288 1.619288 55.5 3 55.5 L 41.965 55.5 Z " style="stroke: none; stroke-linecap: butt; stroke-width: 1; fill: rgb(33%,77%,85%); fill-rule: evenodd;"/></g><circle cx="14.5" cy="47.0" r="2.5" style="stroke: none; stroke-linecap: butt; stroke-width: 1; fill: rgb(33%,77%,85%); fill-rule: evenodd;"/><circle cx="21.5" cy="69.0" r="2.5" style="stroke: none; stroke-linecap: butt; stroke-width: 1; fill: rgb(33%,77%,85%); fill-rule: evenodd;"/><g transform=""><path d="M 53.965 66.5 C 55.345712 66.5 56.465 67.619288 56.465 69 C 56.465 70.380712 55.345712 71.5 53.965 71.5 L 29 71.5 C 27.619288 71.5 26.5 70.380712 26.5 69 C 26.5 67.619288 27.619288 66.5 29 66.5 L 53.965 66.5 Z M 78.965 0.5 C 80.345712 0.5 81.465 1.619288 81.465 3 C 81.465 4.380712 80.345712 5.5 78.965 5.5 L 40 5.5 C 38.619288 5.5 37.5 4.380712 37.5 3 C 37.5 1.619288 38.619288 0.5 40 0.5 L 78.965 0.5 Z M 39.965 12.5 C 41.345712 12.5 42.465 13.619288 42.465 15 C 42.465 16.380712 41.345712 17.5 39.965 17.5 L 21 17.5 C 19.619288 17.5 18.5 16.380712 18.5 15 C 18.5 13.619288 19.619288 12.5 21 12.5 L 39.965 12.5 Z " style="stroke: none; stroke-linecap: butt; stroke-width: 1; fill: rgb(33%,77%,85%); fill-rule: evenodd;"/></g><g transform=""><path d="M 101.5 103.125 C 101.5 104.505712 100.380712 105.625 99 105.625 C 97.619288 105.625 96.5 104.505712 96.5 103.125 L 96.5 90.76 C 96.5 89.379288 97.619288 88.26 99 88.26 C 100.380712 88.26 101.5 89.379288 101.5 90.76 L 101.5 103.125 Z M 101.5 80.714 C 101.5 82.094712 100.380712 83.214 99 83.214 C 97.619288 83.214 96.5 82.094712 96.5 80.714 L 96.5 45 C 96.5 43.619288 97.619288 42.5 99 42.5 C 100.380712 42.5 101.5 43.619288 101.5 45 L 101.5 80.714 Z " style="stroke: none; stroke-linecap: butt; stroke-width: 1; fill: rgb(26%,29%,32%); fill-rule: evenodd;"/></g></g></g></g></g></svg>