<svg width="180" height="180" preserveAspectRatio="xMinYMin meet" viewBox="0.0 1.5 117.0 117.0" xmlns="http://www.w3.org/2000/svg" version="1.0" fill-rule="evenodd" xmlns:xlink="http://www.w3.org/1999/xlink"><title>...</title><desc>...</desc><g id="group" transform="scale(1,-1) translate(0,-120)" clip="0 0 117 120"><g transform=""><g transform=" matrix(1,0,0,-1,0,120)"><g transform=""><g transform=""><path d="M 46.573 8.182 L 94.306 23.099 L 94.306 46.459 L 78.514 51.6 L 78.514 29.398 L 28.821 13.557 Z " style="stroke: none; stroke-linecap: butt; stroke-width: 1; fill: rgb(94%,33%,38%); fill-rule: evenodd;"/></g><g transform=""><path d="M 116.014 19.464 C 115.916919 19.042797 115.690724 18.662426 115.367 18.376 C 115.225325 18.233864 115.067599 18.10869 114.897 18.003 C 114.800377 17.946513 114.700163 17.896406 114.597 17.853 C 114.549 17.825 96.013 11.913 58.988 0.118 C 58.491558 -0.039714 57.958442 -0.039714 57.462 0.118 L 2.075 17.742 C 1.028349 18.071441 0.315542 19.04073 0.313 20.138 L 0.313 80.561 C 0.313 81.659 1.027 82.631 2.075 82.961 L 21.526 89.536 C 21.856 89.641 22.399 88.178 23.152 85.147 L 5.348 78.72 L 5.348 21.98 L 22.133 16.64 L 69.213 31.622 L 58.218 35.119 L 16.174 21.746 C 14.849069 21.324607 13.433393 22.057069 13.012 23.382 C 12.590607 24.706931 13.323069 26.122607 14.648 26.544 L 55.7 39.602 L 55.7 69.526 C 55.727322 70.896824 56.846404 71.993823 58.2175 71.993823 C 59.588596 71.993823 60.707678 70.896824 60.735 69.526 L 60.735 39.602 L 75.003 35.07 L 75.003 51.772 C 75.003682 52.573372 75.385777 53.326566 76.032026 53.800443 C 76.678276 54.274319 77.5115 54.412285 78.276 54.172 L 84.149 52.298 C 85.473931 51.876607 86.206393 50.460931 85.785 49.136 C 85.363607 47.811069 83.947931 47.078607 82.623 47.5 L 80.03 48.325 L 80.03 33.472 L 93.036 29.332 L 93.036 44.186 L 90.176 45.096 C 88.993892 45.471285 88.261347 46.651744 88.44986 47.877582 C 88.638374 49.103421 89.691754 50.009233 90.932 50.012 C 91.188 50.012 91.442 49.972 91.687 49.894 L 96.304 48.426 C 97.352252 48.096388 98.065521 47.124852 98.066 46.026 L 98.066 27.722 L 111.087 23.583 L 111.087 78.719 L 107.815 79.764 C 106.93521 79.996552 106.249351 80.68571 106.021024 81.566606 C 105.792696 82.447501 106.057431 83.383053 106.713481 84.013694 C 107.369532 84.644335 108.314806 84.871928 109.186 84.609 C 109.217 84.599 110.942 84.051 114.361 82.961 C 115.409252 82.631388 116.122521 81.659852 116.123 80.561 L 116.123 20.139 C 116.117448 19.910425 116.080777 19.683673 116.014 19.465 Z M 77.518 28.978 L 30.438 13.998 L 40.177 10.898 L 87.256 25.878 L 77.518 28.978 Z M 95.558 23.238 L 48.483 8.255 L 58.219 5.159 L 105.298 20.139 L 95.56 23.238 Z " style="stroke: none; stroke-linecap: butt; stroke-width: 1; fill: rgb(26%,29%,32%); fill-rule: evenodd;"/></g><g transform=""><path d="M 13.345 63 C 12.049892 63 11 64.049892 11 65.345 L 11 82.379 C 11 83.674108 12.049892 84.724 13.345 84.724 C 14.640108 84.724 15.69 83.674108 15.69 82.379 L 15.69 65.345 C 15.69 64.049892 14.640108 63 13.345 63 Z M 13.344 56 C 12.727 56 12.123 56.25 11.687 56.687 C 11.248383 57.128306 11.001521 57.724799 11 58.347 C 11 58.96 11.25 59.565 11.687 60.003 C 12.127872 60.440063 12.723202 60.685812 13.344 60.687 C 13.96431 60.685815 14.559213 60.440454 15 60.004 C 15.436 59.566 15.687 58.964 15.687 58.347 C 15.687 57.728 15.436 57.124 15 56.687 C 14.5598 56.249172 13.964857 56.002357 13.344 56 Z M 22.344 85 C 21.727 85 21.123 85.25 20.687 85.687 C 20.248383 86.128306 20.001521 86.724799 20 87.347 C 20 87.96 20.25 88.565 20.687 89.003 C 21.127872 89.440063 21.723202 89.685812 22.344 89.687 C 22.96431 89.685815 23.559213 89.440454 24 89.004 C 24.436 88.566 24.686 87.964 24.686 87.347 C 24.686 86.728 24.436 86.124 24 85.687 C 23.5598 85.249172 22.964857 85.002357 22.344 85 Z " style="stroke: none; stroke-linecap: butt; stroke-width: 1; fill: rgb(26%,29%,32%); fill-rule: evenodd;"/></g><g transform=""><path d="M 98.5 53.47 C 97.109737 53.47 95.982552 54.596738 95.982 55.987 L 95.982 82.233 C 95.968 94.741 85.832 104.878 73.323 104.892 L 43.113 104.892 C 41.722737 104.892 40.595552 106.018738 40.595 107.409 L 40.595 112.644 L 22.327 99.857 L 40.595 87.07 L 40.595 92.304 C 40.595552 93.693872 41.722128 94.820448 43.112 94.821 L 65.771 94.821 C 74.11 94.813 80.868 88.055 80.876 79.716 L 80.876 78.646 C 80.848678 77.275176 79.729596 76.178177 78.3585 76.178177 C 76.987404 76.178177 75.868322 77.275176 75.841 78.646 L 75.841 79.716 C 75.841 85.277 71.332 89.786 65.771 89.786 L 45.63 89.786 L 45.63 82.233 C 45.629177 81.29493 45.106961 80.435088 44.27493 80.001843 C 43.442899 79.568599 42.439012 79.633789 41.67 80.171 L 16.493 97.795 C 15.820144 98.266004 15.419414 99.035672 15.419414 99.857 C 15.419414 100.678328 15.820144 101.447996 16.493 101.919 L 41.67 119.542 C 42.438862 120.079979 43.443156 120.145579 44.275467 119.712188 C 45.107779 119.278798 45.629892 118.418387 45.63 117.48 L 45.63 109.927 L 73.323 109.927 C 88.611 109.909 100.999 97.521 101.017 82.233 L 101.017 55.987 C 101.017 55.319185 100.751711 54.678722 100.279495 54.206505 C 99.807278 53.734289 99.166815 53.469 98.499 53.469 Z " style="stroke: none; stroke-linecap: butt; stroke-width: 1; fill: rgb(33%,77%,85%); fill-rule: evenodd;"/></g><g transform=""><path d="M 20 41 L 45.183 41 L 45.183 47.519 L 31.979 80 L 23.844 80 L 36.66 48.354 L 20 48.354 Z " style="stroke: none; stroke-linecap: butt; stroke-width: 1; fill: rgb(94%,33%,38%); fill-rule: evenodd;"/></g></g></g></g></g></svg>