<svg width="180" height="180" preserveAspectRatio="xMinYMin meet" viewBox="3.0 0.0 120.0 120.0" xmlns="http://www.w3.org/2000/svg" version="1.0" fill-rule="evenodd" xmlns:xlink="http://www.w3.org/1999/xlink"><title>...</title><desc>...</desc><g id="group" transform="scale(1,-1) translate(0,-120)" clip="0 0 126 120"><g transform=""><g transform=" matrix(1,0,0,-1,0,120)"><g transform=""><g transform=""><path d="M 35.476 117.433 L 13.02 117.433 C 10.436412 117.433 8.342 115.338588 8.342 112.755 L 8.342 74.625 C 8.341735 73.384052 8.834445 72.193825 9.71174 71.316154 C 10.589035 70.438484 11.779052 69.945265 13.02 69.945 L 35.477 69.945 C 36.718203 69.944735 37.90863 70.437751 38.786199 71.315508 C 39.663768 72.193264 40.156531 73.383797 40.156 74.625 L 40.156 112.755 C 40.155448 115.33875 38.06075 117.433 35.477 117.433 Z " style="stroke: none; stroke-linecap: butt; stroke-width: 1; fill: rgb(94%,33%,38%); fill-rule: evenodd;"/></g><g transform=""><path d="M 110.14 83.748 L 102.818 83.748 C 104.823868 83.748 106.677366 82.677882 107.6803 80.94075 C 108.683234 79.203618 108.683234 77.063382 107.6803 75.32625 C 106.677366 73.589118 104.823868 72.519 102.818 72.519 L 62.247 72.519 L 64.203 70.014 L 64.203 58.206 L 52.816 62.398 L 40.155 75.092 L 40.155 109.48 L 46.606 115.106 C 48.326836 116.60653 50.53283 117.433156 52.816 117.433 L 97.029 117.433 C 100.176 117.433 102.828 114.858 102.769 111.711 C 102.710155 108.652731 100.213835 106.204434 97.155 106.205 L 105.009 106.205 C 108.157 106.205 110.809 103.629 110.749 100.482 C 110.689618 97.424123 108.193453 94.976423 105.135 94.977 L 110.14 94.977 C 113.241079 94.977 115.755 92.463079 115.755 89.362 C 115.755 86.260921 113.241079 83.747 110.14 83.747 Z " style="stroke: none; stroke-linecap: butt; stroke-width: 1; fill: rgb(100%,100%,100%); fill-rule: evenodd;"/></g><g transform=""><path d="M 24.248 105.737 C 23.633 105.737 23.029 105.987 22.594 106.422 C 22.156658 106.861626 21.910185 107.455892 21.908 108.076 C 21.908 108.692 22.158 109.296 22.594 109.73 C 23.033626 110.167342 23.627892 110.413815 24.248 110.416 C 24.863 110.416 25.467 110.166 25.901 109.73 C 26.338434 109.290435 26.584923 108.69613 26.587 108.076 C 26.587 107.461 26.337 106.857 25.901 106.422 C 25.46158 105.985084 24.867662 105.738966 24.248 105.737 Z M 114.184 45.108 C 113.569 45.108 112.965 45.358 112.53 45.794 C 112.093116 46.233849 111.847027 46.828056 111.845 47.448 C 111.845 48.063 112.095 48.667 112.53 49.101 C 112.969626 49.538342 113.563892 49.784815 114.184 49.787 C 114.801 49.787 115.403 49.537 115.838 49.101 C 116.276108 48.662212 116.523044 48.068057 116.525 47.448 C 116.523308 46.827597 116.276352 46.233034 115.838 45.794 C 115.39868 45.356199 114.804217 45.109644 114.184 45.108 Z " style="stroke: none; stroke-linecap: butt; stroke-width: 1; fill: rgb(26%,29%,32%); fill-rule: evenodd;"/></g><g transform=""><path d="M 125.088 27.686 C 124.649014 27.24721 124.053682 27.000804 123.433 27.001 L 65.887 27.004 C 65.266393 27.004 64.671205 27.250535 64.23237 27.68937 C 63.793535 28.128205 63.547 28.723393 63.547 29.344 L 63.547 55.309 C 60.329413 56.438518 57.202675 57.811835 54.194 59.417 C 51.255 60.987 49.537 62.402 48.699 63.239 L 41.269 70.669 C 39.962827 68.753415 37.794524 67.606943 35.476 67.606 L 13.02 67.606 C 9.146284 67.61096 6.007408 70.750283 6.003 74.624 L 6.003 112.754 C 6.006857 116.628107 9.145894 119.768039 13.02 119.773 L 35.478 119.773 C 38.765 119.773 41.531 117.5 42.288 114.443 L 45.07 116.869 C 47.216836 118.74156 49.969248 119.773181 52.818 119.773 L 123.435 119.773 C 124.726956 119.772448 125.774 118.724956 125.774 117.433 L 125.774 29.34 C 125.774 28.72 125.527 28.125 125.089 27.686 Z M 35.476 115.094 L 13.02 115.094 C 11.73 115.094 10.68 114.044 10.68 112.754 L 10.68 74.624 C 10.68 73.334 11.73 72.285 13.02 72.285 L 21.91 72.285 L 21.91 99.233 C 21.946999 100.498169 22.98329 101.504597 24.249 101.504597 C 25.51471 101.504597 26.551001 100.498169 26.588 99.233 L 26.588 72.285 L 35.478 72.285 C 36.768 72.285 37.817 73.335 37.817 74.625 L 37.817 112.755 C 37.817 114.045 36.767 115.095 35.477 115.095 Z M 48.144 113.344 L 42.494 108.416 L 42.494 76.061 L 50.07 68.374 C 52.216 66.516 54.011 65.18 55.456 64.364 C 58.501 62.647 61.196 61.451 63.541 60.776 L 63.541 67.065 L 61.275 73.095 C 61.539865 74.130248 62.472407 74.854552 63.541 74.855 L 102.818 74.858 C 104.626209 74.859653 106.091795 76.324791 106.094 78.133 C 106.091795 79.941209 104.626209 81.406347 102.818 81.408 L 79.252 81.408 C 77.978777 81.434325 76.960371 82.474005 76.960371 83.7475 C 76.960371 85.020995 77.978777 86.060675 79.252 86.087 L 110.141 86.087 C 111.948819 86.089204 113.413796 87.554181 113.416 89.362 C 113.413796 91.169819 111.948819 92.634796 110.141 92.637 L 79.25 92.637 C 77.976777 92.663325 76.958371 93.703005 76.958371 94.9765 C 76.958371 96.249995 77.976777 97.289675 79.25 97.316 L 105.134 97.316 C 106.941819 97.318204 108.406796 98.783181 108.409 100.591 C 108.406796 102.398819 106.941819 103.863796 105.134 103.866 L 79.252 103.866 C 77.978777 103.892325 76.960371 104.932005 76.960371 106.2055 C 76.960371 107.478995 77.978777 108.518675 79.252 108.545 L 97.156 108.545 C 98.963819 108.547204 100.428796 110.012181 100.431 111.82 C 100.428796 113.627819 98.963819 115.092796 97.156 115.095 L 52.816 115.095 C 51.098202 115.094306 49.438688 114.471988 48.144 113.343 Z M 104.401 115.094 C 104.854 114.094 105.109 112.986 105.109 111.819 C 105.109729 110.689284 104.868306 109.572535 104.401 108.544 L 105.135 108.544 C 109.521 108.544 113.089 104.976 113.089 100.59 C 113.089 99.311 112.783 98.102 112.244 97.03 C 115.612 96.106 118.094 93.019 118.094 89.362 C 118.095951 87.654272 117.545175 85.991773 116.524 84.623 L 116.524 54.974 C 116.497675 53.700777 115.457995 52.682371 114.1845 52.682371 C 112.911005 52.682371 111.871325 53.700777 111.845 54.974 L 111.845 81.594 C 111.285029 81.470743 110.713375 81.408381 110.14 81.408 C 110.517 80.408 110.772 79.3 110.772 78.133 C 110.772 73.748 107.204 70.18 102.818 70.18 L 68.227 70.18 L 68.227 32.676 L 121.094 32.674 L 121.094 115.094 L 104.401 115.094 Z " style="stroke: none; stroke-linecap: butt; stroke-width: 1; fill: rgb(26%,29%,32%); fill-rule: evenodd;"/></g><g transform=""><path d="M 76.005 32 L 89.006 32 L 89.006 71 L 76.005 71 Z " style="stroke: none; stroke-linecap: butt; stroke-width: 1; fill: rgb(26%,29%,32%); fill-rule: evenodd;"/></g><g transform=""><path d="M 26.404 63.276 C 25.929005 63.834225 25.232964 64.155881 24.5 64.155881 C 23.767036 64.155881 23.070995 63.834225 22.596 63.276 C 7.889 45.982 0.5 33.213 0.5 24.5 C 0.5 11.245 11.245 0.5 24.5 0.5 C 37.755 0.5 48.5 11.245 48.5 24.5 C 48.5 33.213 41.111 45.982 26.404 63.276 Z M 43.5 24.5 C 43.5 14.007 34.993 5.5 24.5 5.5 C 14.007 5.5 5.5 14.007 5.5 24.5 C 5.5 31.288 11.813 42.514 24.5 57.772 C 37.187 42.514 43.5 31.288 43.5 24.5 Z " style="stroke: none; stroke-linecap: butt; stroke-width: 1; fill: rgb(33%,77%,85%); fill-rule: evenodd;"/></g><g transform=""><path d="M 24.5 36.25 C 18.01 36.25 12.75 30.99 12.75 24.5 C 12.75 18.01 18.01 12.75 24.5 12.75 C 30.99 12.75 36.25 18.01 36.25 24.5 C 36.25 30.99 30.99 36.25 24.5 36.25 Z M 24.5 31.75 C 28.504064 31.75 31.75 28.504064 31.75 24.5 C 31.75 20.495936 28.504064 17.25 24.5 17.25 C 20.495936 17.25 17.25 20.495936 17.25 24.5 C 17.25 28.504064 20.495936 31.75 24.5 31.75 Z " style="stroke: none; stroke-linecap: butt; stroke-width: 1; fill: rgb(33%,77%,85%); fill-rule: evenodd;"/></g></g></g></g></g></svg>